<svg width="22" height="12" viewBox="0 0 22 12" fill="none" xmlns="http://www.w3.org/2000/svg">
<g opacity="0.5">
<path d="M10.9825 0C6.53291 0 2.58358 2.19981 0.134771 5.58C0.0470913 5.70168 0 5.84713 0 5.99625C0 6.14537 0.0470913 6.29082 0.134771 6.4125C2.58358 9.79273 6.53292 12 10.9825 12C15.4321 12 19.3814 9.79273 21.8302 6.4125C21.8948 6.3363 21.9427 6.24781 21.9709 6.15257C21.999 6.05732 22.0069 5.95738 21.9939 5.85902C21.981 5.76065 21.9475 5.66598 21.8956 5.58094C21.8436 5.49589 21.7744 5.42231 21.6922 5.36481C21.61 5.3073 21.5166 5.26711 21.4179 5.24676C21.3191 5.22641 21.2172 5.22633 21.1184 5.24654C21.0196 5.26674 20.9262 5.30679 20.8439 5.36417C20.7616 5.42156 20.6922 5.49503 20.6402 5.58C18.4478 8.60623 14.9415 10.56 10.9825 10.56C7.21578 10.56 3.87334 8.77798 1.6681 6C3.87329 3.2194 7.2137 1.44 10.9825 1.44C14.1954 1.44 17.0922 2.72588 19.2518 4.83C19.3204 4.89698 19.4018 4.95001 19.4913 4.98607C19.5807 5.02213 19.6765 5.04051 19.7732 5.04016C19.8699 5.03982 19.9656 5.02075 20.0548 4.98405C20.144 4.94735 20.225 4.89373 20.2931 4.82626C20.3612 4.7588 20.4152 4.6788 20.4518 4.59083C20.4885 4.50287 20.5072 4.40867 20.5069 4.3136C20.5065 4.21854 20.4871 4.12447 20.4498 4.03678C20.4124 3.94908 20.3579 3.86947 20.2893 3.8025C17.8749 1.4501 14.5947 0 10.9825 0ZM10.9825 2.4C8.96889 2.4 7.32082 4.0203 7.32082 6C7.32082 7.97969 8.96889 9.6 10.9825 9.6C12.9961 9.6 14.6442 7.97969 14.6442 6C14.6442 4.0203 12.9961 2.4 10.9825 2.4ZM10.9825 3.84C12.2046 3.84 13.1795 4.79853 13.1795 6C13.1795 7.20146 12.2046 8.16 10.9825 8.16C9.76046 8.16 8.78549 7.20146 8.78549 6C8.78549 4.79853 9.76045 3.84 10.9825 3.84Z" fill="#444444"/>
</g>
</svg>
