<svg width="17" height="15" viewBox="0 0 17 15" fill="none" xmlns="http://www.w3.org/2000/svg">
<path d="M2.61039 13.273L3.30539 9.45202L0.376389 6.70103C0.208844 6.55119 0.0898377 6.35475 0.0346101 6.13687C-0.0206174 5.91899 -0.00955243 5.68958 0.0663889 5.47802C0.140322 5.2666 0.27195 5.0801 0.446378 4.9396C0.620806 4.7991 0.831072 4.71023 1.05339 4.68302L5.09739 4.12102L6.90539 0.649025C7.01285 0.452498 7.17122 0.288514 7.36388 0.174275C7.55654 0.0600371 7.7764 -0.000244141 8.00039 -0.000244141C8.22438 -0.000244141 8.44423 0.0600371 8.6369 0.174275C8.82956 0.288514 8.98793 0.452498 9.09539 0.649025L10.9054 4.14602L14.9494 4.70802C15.1717 4.73523 15.382 4.8241 15.5564 4.9646C15.7308 5.1051 15.8625 5.2916 15.9364 5.50303C16.0132 5.71448 16.0246 5.94411 15.9694 6.16217C15.9141 6.38024 15.7946 6.57667 15.6264 6.72602L12.6984 9.45202L13.3884 13.297C13.4271 13.5139 13.4021 13.7373 13.3164 13.9401C13.2306 14.143 13.0879 14.3167 12.9054 14.44C12.6956 14.5863 12.4462 14.6652 12.1904 14.666C11.9927 14.6653 11.7977 14.6195 11.6204 14.532L8.00539 12.698L4.38939 14.532C4.189 14.6297 3.96634 14.6726 3.744 14.6565C3.52167 14.6403 3.30755 14.5656 3.12339 14.44C2.93126 14.3188 2.77975 14.143 2.68834 13.935C2.59692 13.7271 2.56978 13.4965 2.61039 13.273Z" fill="#F2931A"/>
</svg>
